<?xml version="1.0" encoding="UTF-8"?>
<svg width="49px" height="97px" viewBox="0 0 49 97" version="1.1" xmlns="http://www.w3.org/2000/svg" xmlns:xlink="http://www.w3.org/1999/xlink">
    <!-- Generator: sketchtool 61.2 (101010) - https://sketch.com -->
    <title>A9AE03F8-AF0C-4D86-BADB-01BEF1069774</title>
    <desc>Created with sketchtool.</desc>
    <g id="Dev-Notes" stroke="none" stroke-width="1" fill="none" fill-rule="evenodd">
        <g id="Assets" transform="translate(-349.000000, -885.000000)" fill="#004885" fill-rule="nonzero">
            <g id="Design-Elements/3-Bar" transform="translate(349.000000, 885.000000)">
                <g id="Combined-Shape">
                    <path d="M24.5,0 C26.0976809,0 27.4036609,1.24891996 27.4949073,2.82372721 L27.5,3 L27.5,93.8167829 C27.5,95.4736372 26.1568542,96.8167829 24.5,96.8167829 C22.9023191,96.8167829 21.5963391,95.567863 21.5050927,93.9930557 L21.5,93.8167829 L21.5,3 C21.5,1.34314575 22.8431458,0 24.5,0 Z M45.5,14.4635762 C47.0976809,14.4635762 48.4036609,15.7124961 48.4949073,17.2873034 L48.5,17.4635762 L48.5,72.9072848 C48.5,74.564139 47.1568542,75.9072848 45.5,75.9072848 C43.9023191,75.9072848 42.5963391,74.6583648 42.5050927,73.0835576 L42.5,72.9072848 L42.5,17.4635762 C42.5,15.8067219 43.8431458,14.4635762 45.5,14.4635762 Z M3.5,24.7086093 C5.09768088,24.7086093 6.40366088,25.9575292 6.49490731,27.5323365 L6.5,27.7086093 L6.5,59.0463576 C6.5,60.7032119 5.15685425,62.0463576 3.5,62.0463576 C1.90231912,62.0463576 0.596339121,60.7974377 0.505092693,59.2226304 L0.5,59.0463576 L0.5,27.7086093 C0.5,26.051755 1.84314575,24.7086093 3.5,24.7086093 Z"></path>
                </g>
            </g>
        </g>
    </g>
</svg>