<?xml version="1.0" encoding="UTF-8"?>
<svg width="134px" height="37px" viewBox="0 0 134 37" version="1.1" xmlns="http://www.w3.org/2000/svg" xmlns:xlink="http://www.w3.org/1999/xlink">
    <!-- Generator: sketchtool 61.2 (101010) - https://sketch.com -->
    <title>AC398A83-65A1-4A8F-AFAC-4503E58BCEF1</title>
    <desc>Created with sketchtool.</desc>
    <g id="Dev-Notes" stroke="none" stroke-width="1" fill="none" fill-rule="evenodd">
        <g id="Assets" transform="translate(-38.000000, -64.000000)" fill="#41B7E6">
            <path d="M119.086897,71.6104882 C124.875907,71.6104882 128.979393,76.619282 128.979393,83.3362589 C128.979393,89.4702845 124.912682,94.6344624 119.086897,94.6344624 C116.777868,94.6344624 114.743558,93.9039142 113.119028,92.1252216 L112.967933,91.9553887 L112.967933,101 L106.885744,101 L106.885744,72.3498667 L112.601204,72.3498667 L112.601204,74.7171292 L112.711529,74.7171292 C114.323503,72.5813787 116.558611,71.6104882 119.086897,71.6104882 Z M71.3846182,71.6111139 C73.8095689,71.6111139 76.0621314,72.6047398 77.2615564,74.4851357 L77.3564819,74.6395414 L77.4290105,74.6395414 L77.4290105,72.3504924 L83.512221,72.3504924 L83.512221,93.8967525 L77.4290105,93.8967525 L77.4290105,91.5680754 L77.3564819,91.5680754 C76.4769447,93.4702281 74.0589834,94.6350881 71.3846182,94.6350881 C65.3749579,94.6350881 61.1979222,89.6262944 61.1979222,83.1032869 C61.1979222,76.7356637 65.5578117,71.6111139 71.3846182,71.6111139 Z M141.252359,71.6106968 C147.334548,71.6106968 151.987617,76.6966612 151.987617,83.3750528 C151.987617,83.9077986 151.961349,84.354733 151.884368,84.8380059 L151.841538,85.0832361 L136.59929,85.0832361 C136.929245,87.529755 138.871173,89.1597247 141.362684,89.1597247 C142.95458,89.1597247 143.999859,88.5443433 144.961008,87.2797894 L145.063687,87.1418159 L151.291955,87.1418159 C149.350026,91.8387984 145.649024,94.5960857 141.362684,94.5960857 C135.500124,94.5960857 130.590652,89.5872919 130.590652,83.1810833 C130.590652,76.9688442 135.280495,71.6106968 141.252359,71.6106968 Z M48.7863341,71.6167453 C54.2137223,71.6167453 58.7166261,75.8788606 59.4592783,81.4236777 L53.7458617,81.4236777 C53.0951471,79.159657 51.1174653,77.5130018 48.7863341,77.5130018 C45.9076628,77.5130018 43.5877685,79.9824633 43.5877685,83.0338333 C43.5877685,86.0612179 45.9076628,88.5431936 48.7863341,88.5431936 C51.1174653,88.5431936 53.0951471,86.8965383 53.7458617,84.6325177 L59.4592783,84.6325177 C58.7043677,90.1773347 54.2259807,94.4404929 48.7863341,94.4404929 C42.8226426,94.4404929 38,89.330543 38,83.0338333 C38,76.7256523 42.8226426,71.6167453 48.7863341,71.6167453 Z M164.738353,71.6111139 L164.738353,78.0944932 C161.17454,78.1324016 159.980087,79.5201295 159.939273,81.8878216 L159.938184,82.0155976 L159.938184,93.8967525 L153.855995,93.8967525 L153.855995,72.3494495 L159.571454,72.3494495 L159.571454,74.6395414 L159.645005,74.6395414 C160.682101,72.4039755 162.31301,71.6471524 164.571944,71.6123806 L164.738353,71.6111139 Z M87.3941367,64 L93.4722395,65.1627743 L93.4722395,93.8952925 L87.3941367,93.8952925 L87.3941367,64 Z M103.21978,72.3498667 L103.21978,93.8929983 L97.1355479,93.8929983 L97.1355479,72.3498667 L103.21978,72.3498667 Z M72.2631339,77.6293835 C69.4784434,77.6293835 67.2801111,80.0748595 67.2801111,83.1815005 C67.2801111,86.1713426 69.5152185,88.6168186 72.3366841,88.6168186 C75.1949247,88.6168186 77.4290105,86.2099279 77.4290105,83.1032869 C77.4290105,80.0748595 75.1213745,77.6293835 72.2631339,77.6293835 Z M117.768102,77.6287578 C114.983412,77.6287578 112.711529,80.0356485 112.711529,83.1422894 C112.711529,86.1707169 114.909861,88.6161929 117.803856,88.6161929 C120.698871,88.6161929 122.897204,86.1321315 122.897204,83.1422894 C122.897204,80.113862 120.698871,77.6287578 117.768102,77.6287578 Z M141.252359,77.0460149 C139.102879,77.0460149 137.233692,78.3830095 136.706681,80.5832182 L136.672841,80.7345645 L145.906449,80.7345645 C145.429395,78.5216433 143.597792,77.0460149 141.252359,77.0460149 Z M167.996624,67.9458199 L167.996624,68.4297008 L167.342845,68.4297008 L167.342845,71.5613701 L166.844339,71.5613701 L166.844339,68.4297008 L166.189538,68.4297008 L166.189538,67.9458199 L167.996624,67.9458199 Z M169.164233,67.9458199 L170.187806,70.7156213 L171.215465,67.9458199 L172,67.9458199 L172,71.5613701 L171.501493,71.5613701 L171.501493,68.5079144 L171.487192,68.5079144 L170.338992,71.5613701 L170.039684,71.5613701 L168.887398,68.5079144 L168.878205,68.5079144 L168.878205,71.5613701 L168.379698,71.5613701 L168.379698,67.9458199 L169.164233,67.9458199 Z M97.1357522,65.8606475 L103.219984,67.0317646 L103.219984,70.6129009 L97.1357522,70.6129009 L97.1357522,65.8606475 Z" id="Shape"></path>
        </g>
    </g>
</svg>
