<?xml version="1.0" encoding="UTF-8"?>
<svg width="1391px" height="318px" viewBox="0 0 1391 318" version="1.1" xmlns="http://www.w3.org/2000/svg" xmlns:xlink="http://www.w3.org/1999/xlink">
    <!-- Generator: sketchtool 61.2 (101010) - https://sketch.com -->
    <title>FC729EA1-1B77-4398-A0BD-BFCFC87094AD</title>
    <desc>Created with sketchtool.</desc>
    <g id="Homepage" stroke="none" stroke-width="1" fill="none" fill-rule="evenodd">
        <g id="Caliper---Homepage-Approved" transform="translate(-25.000000, -4269.000000)">
            <g id="CTA/Shop" transform="translate(25.000000, 4204.000000)">
                <g id="Background-Image">
                    <g>
                        <rect id="Rectangle" fill="#FBC890" x="0" y="66" width="1391" height="317"></rect>
                        <path d="M1248.32525,153.64246 L1248.47487,153.783676 L1264.47487,169.783676 C1265.84171,171.150511 1265.84171,173.366588 1264.47487,174.733423 C1263.15685,176.051443 1261.04917,176.098515 1259.67475,174.87464 L1259.52513,174.733423 L1243.52513,158.733423 C1242.15829,157.366588 1242.15829,155.150511 1243.52513,153.783676 C1244.84315,152.465657 1246.95083,152.418584 1248.32525,153.64246 Z M1303.32525,153.64246 L1303.47487,153.783676 L1319.47487,169.783676 C1320.84171,171.150511 1320.84171,173.366588 1319.47487,174.733423 C1318.15685,176.051443 1316.04917,176.098515 1314.67475,174.87464 L1314.52513,174.733423 L1298.52513,158.733423 C1297.15829,157.366588 1297.15829,155.150511 1298.52513,153.783676 C1299.84315,152.465657 1301.95083,152.418584 1303.32525,153.64246 Z M1335.32525,153.64246 L1335.47487,153.783676 L1351.47487,169.783676 C1352.84171,171.150511 1352.84171,173.366588 1351.47487,174.733423 C1350.15685,176.051443 1348.04917,176.098515 1346.67475,174.87464 L1346.52513,174.733423 L1330.52513,158.733423 C1329.15829,157.366588 1329.15829,155.150511 1330.52513,153.783676 C1331.84315,152.465657 1333.95083,152.418584 1335.32525,153.64246 Z M1270.32525,143.64246 L1270.47487,143.783676 L1286.47487,159.783676 C1287.84171,161.150511 1287.84171,163.366588 1286.47487,164.733423 C1285.15685,166.051443 1283.04917,166.098515 1281.67475,164.87464 L1281.52513,164.733423 L1265.52513,148.733423 C1264.15829,147.366588 1264.15829,145.150511 1265.52513,143.783676 C1266.84315,142.465657 1268.95083,142.418584 1270.32525,143.64246 Z M1281.32525,120.64246 L1281.47487,120.783676 L1297.47487,136.783676 C1298.84171,138.150511 1298.84171,140.366588 1297.47487,141.733423 C1296.15685,143.051443 1294.04917,143.098515 1292.67475,141.87464 L1292.52513,141.733423 L1276.52513,125.733423 C1275.15829,124.366588 1275.15829,122.150511 1276.52513,120.783676 C1277.84315,119.465657 1279.95083,119.418584 1281.32525,120.64246 Z M1310.32525,120.64246 L1310.47487,120.783676 L1326.47487,136.783676 C1327.84171,138.150511 1327.84171,140.366588 1326.47487,141.733423 C1325.15685,143.051443 1323.04917,143.098515 1321.67475,141.87464 L1321.52513,141.733423 L1305.52513,125.733423 C1304.15829,124.366588 1304.15829,122.150511 1305.52513,120.783676 C1306.84315,119.465657 1308.95083,119.418584 1310.32525,120.64246 Z M1341.32525,120.64246 L1341.47487,120.783676 L1357.47487,136.783676 C1358.84171,138.150511 1358.84171,140.366588 1357.47487,141.733423 C1356.15685,143.051443 1354.04917,143.098515 1352.67475,141.87464 L1352.52513,141.733423 L1336.52513,125.733423 C1335.15829,124.366588 1335.15829,122.150511 1336.52513,120.783676 C1337.84315,119.465657 1339.95083,119.418584 1341.32525,120.64246 Z M1248.32525,112.64246 L1248.47487,112.783676 L1264.47487,128.783676 C1265.84171,130.150511 1265.84171,132.366588 1264.47487,133.733423 C1263.15685,135.051443 1261.04917,135.098515 1259.67475,133.87464 L1259.52513,133.733423 L1243.52513,117.733423 C1242.15829,116.366588 1242.15829,114.150511 1243.52513,112.783676 C1244.84315,111.465657 1246.95083,111.418584 1248.32525,112.64246 Z M1213.32525,112.64246 L1213.47487,112.783676 L1229.47487,128.783676 C1230.84171,130.150511 1230.84171,132.366588 1229.47487,133.733423 C1228.15685,135.051443 1226.04917,135.098515 1224.67475,133.87464 L1224.52513,133.733423 L1208.52513,117.733423 C1207.15829,116.366588 1207.15829,114.150511 1208.52513,112.783676 C1209.84315,111.465657 1211.95083,111.418584 1213.32525,112.64246 Z M1323.32525,88.6424596 L1323.47487,88.783676 L1339.47487,104.783676 C1340.84171,106.150511 1340.84171,108.366588 1339.47487,109.733423 C1338.15685,111.051443 1336.04917,111.098515 1334.67475,109.87464 L1334.52513,109.733423 L1318.52513,93.7334235 C1317.15829,92.3665885 1317.15829,90.150511 1318.52513,88.783676 C1319.84315,87.4656565 1321.95083,87.4185844 1323.32525,88.6424596 Z M1289.32525,88.6424596 L1289.47487,88.783676 L1305.47487,104.783676 C1306.84171,106.150511 1306.84171,108.366588 1305.47487,109.733423 C1304.15685,111.051443 1302.04917,111.098515 1300.67475,109.87464 L1300.52513,109.733423 L1284.52513,93.7334235 C1283.15829,92.3665885 1283.15829,90.150511 1284.52513,88.783676 C1285.84315,87.4656565 1287.95083,87.4185844 1289.32525,88.6424596 Z M1348.32525,88.3839099 L1348.47487,88.5251263 L1364.47487,104.525126 C1365.84171,105.891961 1365.84171,108.108039 1364.47487,109.474874 C1363.15685,110.792893 1361.04917,110.839965 1359.67475,109.61609 L1359.52513,109.474874 L1343.52513,93.4748737 C1342.15829,92.1080387 1342.15829,89.8919613 1343.52513,88.5251263 C1344.84315,87.2071068 1346.95083,87.1600347 1348.32525,88.3839099 Z M1259.32525,84.6424596 L1259.47487,84.783676 L1275.47487,100.783676 C1276.84171,102.150511 1276.84171,104.366588 1275.47487,105.733423 C1274.15685,107.051443 1272.04917,107.098515 1270.67475,105.87464 L1270.52513,105.733423 L1254.52513,89.7334235 C1253.15829,88.3665885 1253.15829,86.150511 1254.52513,84.783676 C1255.84315,83.4656565 1257.95083,83.4185844 1259.32525,84.6424596 Z M1224.32525,77.6424596 L1224.47487,77.783676 L1240.47487,93.783676 C1241.84171,95.150511 1241.84171,97.3665885 1240.47487,98.7334235 C1239.15685,100.051443 1237.04917,100.098515 1235.67475,98.8746399 L1235.52513,98.7334235 L1219.52513,82.7334235 C1218.15829,81.3665885 1218.15829,79.150511 1219.52513,77.783676 C1220.84315,76.4656565 1222.95083,76.4185844 1224.32525,77.6424596 Z M1281.67475,66 L1291.69361,66.0024167 L1292.17228,66.4810852 C1294.55815,68.8669483 1297.99234,72.3011453 1302.47487,76.783676 C1303.84171,78.150511 1303.84171,80.3665885 1302.47487,81.7334235 C1301.15685,83.051443 1299.04917,83.0985151 1297.67475,81.8746399 L1297.52513,81.7334235 L1281.67475,66 Z M1353.69542,65.9820902 L1354.17156,66.4583235 C1356.54601,68.8336657 1359.98045,72.2754499 1364.47487,76.783676 C1365.84171,78.150511 1365.84171,80.3665885 1364.47487,81.7334235 C1363.15685,83.051443 1361.04917,83.0985151 1359.67475,81.8746399 L1359.52513,81.7334235 L1357.47744,79.6846103 C1351.49277,73.6967417 1346.93364,69.1360105 1343.80004,66.0024167 L1353.69542,65.9820902 Z M1323.66695,65.9757479 L1324.26973,66.5785332 C1325.75897,68.0677675 1327.82735,70.1361484 1330.47487,72.783676 C1331.84171,74.150511 1331.84171,76.3665885 1330.47487,77.7334235 C1329.15685,79.051443 1327.04917,79.0985151 1325.67475,77.8746399 L1325.52513,77.7334235 C1320.30231,72.5106087 1316.3852,68.5934976 1313.77379,65.9820902 L1323.66695,65.9757479 Z M1254.73717,65.9454641 L1264.69437,66 L1265.29345,66.5993317 C1265.85779,67.1641095 1266.58493,67.8922243 1267.47487,68.783676 C1268.84171,70.150511 1268.84171,72.3665885 1267.47487,73.7334235 C1266.15685,75.051443 1264.04917,75.0985151 1262.67475,73.8746399 L1262.52513,73.7334235 C1259.06381,70.2721082 1256.46782,67.6761217 1254.73717,65.9454641 Z" id="Combined-Shape" fill="#3C74AA" fill-rule="nonzero"></path>
                        <path d="M235.459973,278.451401 C322.444821,278.451401 392.959973,207.488534 392.959973,119.951401 C392.959973,87.8146602 383.456081,57.911766 367.122461,32.933859 L79.2828732,99.3142358 C78.4101284,106.06899 77.9599728,112.957292 77.9599728,119.951401 C77.9599728,207.488534 148.475125,278.451401 235.459973,278.451401 Z" id="Oval" fill="#3C74AA" transform="translate(235.459973, 155.692630) rotate(13.000000) translate(-235.459973, -155.692630) "></path>
                        <path d="M90.5,109.867446 C64.5426168,109.867446 43.5,130.910063 43.5,156.867446 C43.5,182.82483 64.5426168,203.867446 90.5,203.867446 C116.457383,203.867446 137.5,182.82483 137.5,156.867446 C137.5,130.910063 116.457383,109.867446 90.5,109.867446 Z M90.5,114.867446 C113.695959,114.867446 132.5,133.671487 132.5,156.867446 C132.5,180.063406 113.695959,198.867446 90.5,198.867446 C67.3040405,198.867446 48.5,180.063406 48.5,156.867446 C48.5,133.671487 67.3040405,114.867446 90.5,114.867446 Z" id="Oval-Copy-3" fill="#004885" fill-rule="nonzero" transform="translate(90.500000, 156.867446) rotate(13.000000) translate(-90.500000, -156.867446) "></path>
                    </g>
                </g>
            </g>
        </g>
    </g>
</svg>