<?xml version="1.0" encoding="UTF-8"?>
<svg width="654px" height="626px" viewBox="0 0 654 626" version="1.1" xmlns="http://www.w3.org/2000/svg" xmlns:xlink="http://www.w3.org/1999/xlink">
    <!-- Generator: sketchtool 61.2 (101010) - https://sketch.com -->
    <title>2FCDA42B-3BEB-4FE2-B389-6B02E7E0F5BE</title>
    <desc>Created with sketchtool.</desc>
    <g id="Homepage" stroke="none" stroke-width="1" fill="none" fill-rule="evenodd">
        <g id="Caliper---Homepage-Approved" transform="translate(-140.000000, -2191.000000)">
            <g id="Layout/Content-W-Media/Slider" transform="translate(-14.000000, 2126.000000)">
                <g id="Image">
                    <g transform="translate(154.000000, 68.000000)">
                        <g id="Image-Background">
                            <path d="M275.204,622.7 C399.666034,622.7 711.362026,577.625229 643.9689,200.472638 C624.657086,92.3978061 545.263898,44 399.576245,44 C210.59752,44 47,220.031024 47,344.6 C47,469.168976 150.741966,622.7 275.204,622.7 Z" id="Oval" fill="#004885" transform="translate(350.199090, 333.350000) scale(1, -1) translate(-350.199090, -333.350000) "></path>
                            <circle id="Oval" fill="#A6CF9F" cx="109.8" cy="495.8" r="109.8"></circle>
                            <g id="Little-Lines" transform="translate(20.000000, 0.000000)" stroke="#F4FAFA" stroke-linecap="round" stroke-width="5.67">
                                <line x1="44.226" y1="1.77635684e-15" x2="62.37" y2="18.144" id="Path-4"></line>
                                <line x1="83.916" y1="9.072" x2="102.06" y2="27.216" id="Path-4-Copy"></line>
                                <line x1="116.802" y1="4.536" x2="134.946" y2="22.68" id="Path-4-Copy-2"></line>
                                <line x1="155.358" y1="9.072" x2="173.502" y2="27.216" id="Path-4-Copy-3"></line>
                                <line x1="127.008" y1="41.958" x2="145.152" y2="60.102" id="Path-4-Copy-4"></line>
                                <line x1="87.318" y1="41.958" x2="105.462" y2="60.102" id="Path-4-Copy-5"></line>
                                <line x1="12.474" y1="28.35" x2="30.618" y2="46.494" id="Path-4-Copy-6"></line>
                                <line x1="40.824" y1="69.174" x2="58.968" y2="87.318" id="Path-4-Copy-7"></line>
                                <line x1="53.298" y1="37.422" x2="71.442" y2="55.566" id="Path-4-Copy-8"></line>
                                <line x1="1.15463195e-13" y1="69.174" x2="18.144" y2="87.318" id="Path-4-Copy-9"></line>
                                <line x1="40.824" y1="116.802" x2="58.968" y2="134.946" id="Path-4-Copy-10"></line>
                                <line x1="65.772" y1="104.328" x2="83.916" y2="122.472" id="Path-4-Copy-11"></line>
                                <line x1="78.246" y1="78.246" x2="96.39" y2="96.39" id="Path-4-Copy-12"></line>
                                <line x1="103.194" y1="116.802" x2="121.338" y2="134.946" id="Path-4-Copy-13"></line>
                                <line x1="112.266" y1="78.246" x2="130.41" y2="96.39" id="Path-4-Copy-14"></line>
                                <line x1="147.42" y1="78.246" x2="165.564" y2="96.39" id="Path-4-Copy-15"></line>
                                <line x1="140.616" y1="116.802" x2="158.76" y2="134.946" id="Path-4-Copy-17"></line>
                            </g>
                        </g>
                    </g>
                </g>
            </g>
        </g>
    </g>
</svg>