<?xml version="1.0" encoding="UTF-8"?>
<svg width="56px" height="56px" viewBox="0 0 56 56" version="1.1" xmlns="http://www.w3.org/2000/svg" xmlns:xlink="http://www.w3.org/1999/xlink">
    <!-- Generator: sketchtool 61.2 (101010) - https://sketch.com -->
    <title>7885451B-904C-46F2-9A5D-6E12582921DF</title>
    <desc>Created with sketchtool.</desc>
    <g id="Homepage" stroke="none" stroke-width="1" fill="none" fill-rule="evenodd">
        <g id="Caliper---Homepage-Approved" transform="translate(-68.000000, -1065.000000)" fill="#004885" fill-rule="nonzero">
            <g id="Products" transform="translate(68.000000, 763.000000)">
                <g transform="translate(0.000000, 94.000000)" id="UI/Toggles">
                    <g transform="translate(0.000000, 208.000000)">
                        <g id="Left">
                            <g>
                                <path d="M28,0.5 C12.8121694,0.5 0.5,12.8121694 0.5,28 C0.5,43.1878306 12.8121694,55.5 28,55.5 C43.1878306,55.5 55.5,43.1878306 55.5,28 C55.5,12.8121694 43.1878306,0.5 28,0.5 Z M28,1.5 C42.6355459,1.5 54.5,13.3644541 54.5,28 C54.5,42.6355459 42.6355459,54.5 28,54.5 C13.3644541,54.5 1.5,42.6355459 1.5,28 C1.5,13.3644541 13.3644541,1.5 28,1.5 Z" id="Oval"></path>
                                <polygon id="Path-2" points="32.6556253 18.6375003 33.3443747 19.3624997 23.726 28.5 33.3443747 37.6375003 32.6556253 38.3624997 22.2740466 28.5"></polygon>
                            </g>
                        </g>
                    </g>
                </g>
            </g>
        </g>
    </g>
</svg>