<?xml version="1.0" encoding="UTF-8"?>
<svg width="30px" height="28px" viewBox="0 0 30 28" version="1.1" xmlns="http://www.w3.org/2000/svg" xmlns:xlink="http://www.w3.org/1999/xlink">
    <!-- Generator: sketchtool 61.2 (101010) - https://sketch.com -->
    <title>8F4C0011-16DC-495A-A0BE-EA2D4656A813</title>
    <desc>Created with sketchtool.</desc>
    <g id="Homepage" stroke="none" stroke-width="1" fill="none" fill-rule="evenodd">
        <g id="Caliper---Homepage-Approved" transform="translate(-164.000000, -4004.000000)" fill="#41B7E6" fill-rule="nonzero">
            <g id="Layout/Content-W-Media/Icons" transform="translate(0.000000, 3599.000000)">
                <g id="Icons/Cancel">
                    <g transform="translate(164.000000, 405.000000)">
                        <g id="Combined-Shape">
                            <path d="M26.3813988,0.450000021 C28.0362647,0.450000021 29.3777986,1.79153393 29.3777986,3.44639988 L29.3777986,3.44639988 L29.3777986,17.6869992 C29.3777986,19.3418652 28.0362647,20.6833991 26.3813988,20.6833991 L26.3813988,20.6833991 L12.577,20.683 L5.05626162,27.3144982 L5.056,20.683 L3.44639988,20.6833991 C1.85063629,20.6833991 0.54622353,19.4359779 0.455086603,17.8630605 L0.455086603,17.8630605 L0.450000021,17.6869992 L0.450000021,3.44639988 C0.450000021,1.79153393 1.79153393,0.450000021 3.44639988,0.450000021 L3.44639988,0.450000021 Z M26.3813988,1.54999998 L3.44639988,1.54999998 C2.39904714,1.54999998 1.54999998,2.39904714 1.54999998,3.44639988 L1.54999998,3.44639988 L1.54999998,17.6869992 C1.54999998,18.734352 2.39904714,19.5833991 3.44639988,19.5833991 L3.44639988,19.5833991 L6.15626157,19.5833991 L6.156,24.877 L12.1632357,19.5833991 L26.3813988,19.5833991 C27.4287515,19.5833991 28.2777987,18.734352 28.2777987,17.6869992 L28.2777987,17.6869992 L28.2777987,3.44639988 C28.2777987,2.39904714 27.4287515,1.54999998 26.3813988,1.54999998 L26.3813988,1.54999998 Z M20.3867076,4.81843943 L21.2650586,5.66974289 L16.402,10.686 L21.2650586,15.7035819 L20.3867076,16.5548854 L15.551,11.565 L10.7151084,16.5548854 L9.83675738,15.7035819 L14.699,10.686 L9.83675738,5.66974289 L10.7151084,4.81843943 L15.55,9.80700002 L20.3867076,4.81843943 Z"></path>
                        </g>
                    </g>
                </g>
            </g>
        </g>
    </g>
</svg>