<?xml version="1.0" encoding="UTF-8"?>
<svg width="39px" height="32px" viewBox="0 0 39 32" version="1.1" xmlns="http://www.w3.org/2000/svg" xmlns:xlink="http://www.w3.org/1999/xlink">
    <!-- Generator: sketchtool 61.2 (101010) - https://sketch.com -->
    <title>9A7B1DEF-5141-4292-9F35-3454BC0CFE6B</title>
    <desc>Created with sketchtool.</desc>
    <g id="Homepage" stroke="none" stroke-width="1" fill="none" fill-rule="evenodd">
        <g id="Caliper---Homepage-Approved" transform="translate(-160.000000, -3936.000000)" fill-rule="nonzero">
            <g id="Layout/Content-W-Media/Icons" transform="translate(0.000000, 3599.000000)">
                <g id="Icons/Deliveries">
                    <g transform="translate(160.000000, 338.000000)">
                        <g>
                            <path d="M4.17293174,1.43240004 L7.789,23.4044 L7.8876925,23.402372 C9.1098339,23.402372 10.1808356,24.0494778 10.7767558,25.0197476 L21.0575611,23.4389924 L21.2300744,24.5610076 L11.2057852,26.1023397 C11.251615,26.3245102 11.2756923,26.5546292 11.2756923,26.7903718 C11.2756923,28.6615124 9.75883312,30.1783716 7.8876925,30.1783716 C6.01655189,30.1783716 4.49969272,28.6615124 4.49969272,26.7903718 C4.49969272,25.3464373 5.40298301,24.1134777 6.67531288,23.6257435 L3.209,2.567 L2.48689958e-13,2.56759996 L2.48689958e-13,1.43240004 L4.17293174,1.43240004 Z M7.8876925,24.5023719 C6.62406509,24.5023719 5.59969267,25.5267444 5.59969267,26.7903718 C5.59969267,28.0539992 6.62406509,29.0783716 7.8876925,29.0783716 C9.15131992,29.0783716 10.1756923,28.0539992 10.1756923,26.7903718 C10.1756923,25.5267444 9.15131992,24.5023719 7.8876925,24.5023719 Z" id="Combined-Shape" fill="#41B7E6"></path>
                            <path d="M32.55,-0.549999979 L28.45,-0.549999979 L28.45,10.55 L32.55,10.55 L32.55,-0.549999979 Z M31.45,0.549 L31.45,9.45 L29.549,9.45 L29.549,0.549 L31.45,0.549 Z" id="Rectangle" fill="#41B6E6"></path>
                            <path d="M38.55,-0.549999979 L34.45,-0.549999979 L34.45,10.55 L38.55,10.55 L38.55,-0.549999979 Z M37.45,0.549 L37.45,9.45 L35.549,9.45 L35.549,0.549 L37.45,0.549 Z" id="Rectangle" fill="#41B6E6"></path>
                            <g id="Group" transform="translate(17.499940, 14.031396) rotate(-9.000000) translate(-17.499940, -14.031396) translate(8.499940, 5.531396)" fill="#41B6E6">
                                <path d="M17.6115583,0.667827696 L17.6115583,16.5254267 L0.511558318,16.5254267 L0.511558318,0.667827696 L17.6115583,0.667827696 Z M6.03955832,1.7668277 L1.611,1.767 L1.611,15.425 L16.511,15.425 L16.511,1.767 L12.8155583,1.7668277 L12.8160459,5.60597661 L9.541,4.237 L6.04004635,5.57975304 L6.03955832,1.7668277 Z M6.45375793,12.8536269 L6.45375793,13.4212269 L3.61575812,13.4212269 L3.61575812,12.8536269 L6.45375793,12.8536269 Z M6.45375793,11.718427 L6.45375793,12.2860269 L3.61575812,12.2860269 L3.61575812,11.718427 L6.45375793,11.718427 Z M11.716,1.924 L7.14,1.924 L7.14,3.98 L9.55997022,3.05222758 L11.716,3.953 L11.716,1.924 Z" id="Combined-Shape"></path>
                            </g>
                        </g>
                    </g>
                </g>
            </g>
        </g>
    </g>
</svg>