<?xml version="1.0" encoding="UTF-8"?>
<svg width="41px" height="23px" viewBox="0 0 41 23" version="1.1" xmlns="http://www.w3.org/2000/svg" xmlns:xlink="http://www.w3.org/1999/xlink">
    <!-- Generator: sketchtool 61.2 (101010) - https://sketch.com -->
    <title>23B33399-82F5-435A-AE41-F9345FE7C08D</title>
    <desc>Created with sketchtool.</desc>
    <g id="Homepage" stroke="none" stroke-width="1" fill="none" fill-rule="evenodd">
        <g id="Caliper---Homepage-Approved" transform="translate(-156.000000, -3813.000000)" fill="#42B5E6">
            <g id="Layout/Content-W-Media/Icons" transform="translate(0.000000, 3599.000000)">
                <g id="Icons/Tag">
                    <g transform="translate(156.000000, 214.000000)">
                        <g id="Combined-Shape">
                            <path d="M40.6574352,2.39310787e-13 L40.6574352,22.9569573 L5.94143929,22.9569573 L4.54748652e-15,11.4787186 L5.94143929,2.39310787e-13 L40.6574352,2.39310787e-13 Z M39.8471952,0.810239903 L6.43439923,0.810239903 L0.911999891,11.4787186 L6.43439923,22.1467174 L39.8471952,22.1467174 L39.8471952,0.810239903 Z M21.7198534,5.08281539 C23.6100932,5.08281539 25.038573,6.84393518 25.038573,8.95977493 L25.038573,13.6772144 C25.038573,16.2941741 23.1478532,17.5061739 21.6636934,17.5061739 C20.1089736,17.5061739 18.3305738,16.1972141 18.3305738,13.5154544 L18.3305738,9.07305492 C18.3305738,6.53673522 19.9971336,5.08281539 21.7198534,5.08281539 Z M33.87398,11.7063826 C35.2885398,11.7063826 36.4088597,13.0470224 36.4088597,14.5979023 C36.4088597,16.1651021 35.2885398,17.4899019 33.87398,17.4899019 C32.4877401,17.4899019 31.3391003,16.1809421 31.3391003,14.5979023 C31.3391003,13.0148624 32.4877401,11.7063826 33.87398,11.7063826 Z M15.2224782,5.32478337 L15.2224782,17.2796619 L13.7656784,17.2796619 L13.7656784,6.85982318 L12.2392785,6.85982318 L12.2392785,5.32478337 L15.2224782,5.32478337 Z M34.6722199,5.32478337 L28.7346206,17.2796619 L27.7967007,17.2796619 L33.7343,5.32478337 L34.6722199,5.32478337 Z M33.86054,13.0955024 C33.17414,13.0955024 32.6000601,13.7742224 32.6000601,14.5979023 C32.6000601,15.4220622 33.15974,16.1003021 33.87398,16.1003021 C34.5886999,16.1003021 35.1483798,15.4220622 35.1483798,14.5979023 C35.1483798,13.7742224 34.5886999,13.0955024 33.86054,13.0955024 Z M21.6915334,6.61737521 C20.4732936,6.61737521 19.7873736,7.68393508 19.7873736,8.95977493 L19.7873736,13.4348144 C19.7873736,14.8080942 20.4171336,15.9711341 21.6915334,15.9711341 C22.6160133,15.9711341 23.5822532,15.1311342 23.5822532,13.7578544 L23.5822532,8.95977493 C23.5822532,7.76457507 22.9942533,6.61737521 21.6915334,6.61737521 Z M7.24372714,8.96030293 C8.63428697,8.96030293 9.76180684,10.0878228 9.76180684,11.4783826 C9.76180684,12.8694225 8.63428697,13.9964623 7.24372714,13.9964623 C5.8531673,13.9964623 4.72564744,12.8694225 4.72564744,11.4783826 C4.72564744,10.0878228 5.8531673,8.96030293 7.24372714,8.96030293 Z M7.24372714,9.77054284 C6.30196725,9.77054284 5.53588734,10.5366227 5.53588734,11.4783826 C5.53588734,12.4206225 6.30196725,13.1867024 7.24372714,13.1867024 C8.18548702,13.1867024 8.95156693,12.4206225 8.95156693,11.4783826 C8.95156693,10.5366227 8.18548702,9.77054284 7.24372714,9.77054284 Z M28.6928606,5.14718339 C30.1074204,5.14718339 31.2272603,6.48830323 31.2272603,8.03918304 C31.2272603,9.60590285 30.1074204,10.9307027 28.6928606,10.9307027 C27.3061407,10.9307027 26.1579809,9.62222285 26.1579809,8.03918304 C26.1579809,6.45566323 27.3061407,5.14718339 28.6928606,5.14718339 Z M28.6784606,6.53678322 C27.9925407,6.53678322 27.4184607,7.21502314 27.4184607,8.03918304 C27.4184607,8.86286294 27.9786207,9.54158286 28.6928606,9.54158286 C29.4066205,9.54158286 29.9672604,8.86286294 29.9672604,8.03918304 C29.9672604,7.21502314 29.4066205,6.53678322 28.6784606,6.53678322 Z"></path>
                        </g>
                    </g>
                </g>
            </g>
        </g>
    </g>
</svg>