<?xml version="1.0" encoding="UTF-8"?>
<svg width="40px" height="28px" viewBox="0 0 40 28" version="1.1" xmlns="http://www.w3.org/2000/svg" xmlns:xlink="http://www.w3.org/1999/xlink">
    <!-- Generator: sketchtool 61.2 (101010) - https://sketch.com -->
    <title>F5FEF7F2-53C5-473E-ACA7-420A3E479E83</title>
    <desc>Created with sketchtool.</desc>
    <g id="Homepage" stroke="none" stroke-width="1" fill="none" fill-rule="evenodd">
        <g id="Caliper---Homepage-Approved" transform="translate(-157.000000, -3872.000000)" fill="#41B6E6" fill-rule="nonzero">
            <g id="Layout/Content-W-Media/Icons" transform="translate(0.000000, 3599.000000)">
                <g id="Icons/Shipping">
                    <g transform="translate(157.000000, 273.000000)">
                        <g id="Combined-Shape">
                            <path d="M27.9710662,0.912858034 L30.215,6.96585803 L35.6891234,6.96643657 L39.6141935,13.9174942 L39.6141935,21.8744909 L33.9943929,21.8738947 C34.1279505,22.2905475 34.200062,22.7347007 34.200062,23.1956889 C34.200062,25.5848803 32.2630734,27.5218689 29.8738819,27.5218689 C27.4846905,27.5218689 25.5477019,25.5848803 25.5477019,23.1956889 C25.5477019,22.7347007 25.6198134,22.2905475 25.753371,21.8738947 L13.9157851,21.8738947 C14.0493427,22.2905475 14.1214542,22.7347007 14.1214542,23.1956889 C14.1214542,25.5848803 12.1844656,27.5218689 9.79527415,27.5218689 C7.40608271,27.5218689 5.46909411,25.5848803 5.46909411,23.1956889 C5.46909411,20.8064974 7.40608271,18.8695088 9.79527415,18.8695088 C11.3300811,18.8695088 12.6782764,19.668851 13.4462444,20.8739196 L26.2229117,20.8739196 C26.9045284,19.8043504 28.0432252,19.0543966 29.3637925,18.8992676 L29.3646321,7.549 L27.2746321,1.912 L8.45711913,1.91285803 L8.45711913,0.912858034 L27.9710662,0.912858034 Z M9.79527415,19.8695088 C7.95836743,19.8695088 6.46909405,21.3587821 6.46909405,23.1956889 C6.46909405,25.0325956 7.95836743,26.521869 9.79527415,26.521869 C11.6321809,26.521869 13.1214543,25.0325956 13.1214543,23.1956889 C13.1214543,21.3587821 11.6321809,19.8695088 9.79527415,19.8695088 Z M29.8738819,19.8695088 C28.0369752,19.8695088 26.5477018,21.3587821 26.5477018,23.1956889 C26.5477018,25.0325956 28.0369752,26.521869 29.8738819,26.521869 C31.7107887,26.521869 33.200062,25.0325956 33.200062,23.1956889 C33.200062,21.3587821 31.7107887,19.8695088 29.8738819,19.8695088 Z M35.104,7.966 L30.365,7.96585803 L30.3659281,18.8971864 C31.6941635,19.0475762 32.8401331,19.7994822 33.5248522,20.8739196 L38.614,20.874 L38.6139197,14.5404366 L32.4645257,14.5407994 L32.8901177,10.1648131 L33.8854215,10.2616126 L33.566,13.54 L38.2519197,13.5404366 L35.104,7.966 Z M13.0041363,14.017138 L13.0041363,15.017138 L0,15.017138 L0,14.017138 L13.0041363,14.017138 Z M13.0041363,10.0845318 L13.0041363,11.0845318 L2.77879785,11.0845318 L2.77879785,10.0845318 L13.0041363,10.0845318 Z M13.0041363,6.15192574 L13.0041363,7.15192574 L5.85108777,7.15192574 L5.85108777,6.15192574 L13.0041363,6.15192574 Z"></path>
                        </g>
                    </g>
                </g>
            </g>
        </g>
    </g>
</svg>