<?xml version="1.0" encoding="UTF-8"?>
<svg width="34px" height="46px" viewBox="0 0 34 46" version="1.1" xmlns="http://www.w3.org/2000/svg" xmlns:xlink="http://www.w3.org/1999/xlink">
    <!-- Generator: sketchtool 61.2 (101010) - https://sketch.com -->
    <title>0812A93C-182D-4BBB-997C-05990ED74AD9</title>
    <desc>Created with sketchtool.</desc>
    <g id="Dev-Notes" stroke="none" stroke-width="1" fill="none" fill-rule="evenodd">
        <g id="Assets" transform="translate(-533.000000, -63.000000)" fill="#42B5E5" fill-rule="nonzero">
            <g id="Icons/Science" transform="translate(533.000000, 63.000000)">
                <g id="Combined-Shape">
                    <path d="M24.29129,0.44989 C25.4248804,0.44989 26.34389,1.36866721 26.34389,2.50194 L26.34389,2.50194 L26.34389,4.12279 C26.34389,5.25606279 25.4248804,6.17484 24.29129,6.17484 C23.6605966,6.17484 23.14894,6.68649661 23.14894,7.31719 L23.14894,7.31719 L23.1497759,11.8403696 C23.1693799,12.2448979 23.3412501,12.7200803 24.6086739,15.3103566 L24.6086739,15.3103566 L27.6197851,21.3756926 C27.6289028,21.3751003 27.6380671,21.3745602 27.6472788,21.3740717 L27.783515,21.37057 L27.78289,21.70389 L28.4273592,23.0011455 L29.3733291,24.9253959 C32.0912781,30.5231658 33.44604,34.0120249 33.44604,36.01399 C33.44604,40.0924236 31.7429213,42.657113 28.4354119,44.0264304 C25.8279199,45.1059388 22.5639584,45.4349397 16.947701,45.4349397 L16.947701,45.4349397 L16.1239756,45.4325999 C10.9660958,45.401158 7.83674344,45.0405768 5.35136168,43.9805323 C2.11559587,42.6004403 0.44989,40.0465254 0.44989,36.01399 C0.44989,34.0650147 1.73266738,30.7088355 4.30378022,25.3781417 L4.30378022,25.3781417 L4.93682011,24.0784103 L9.45314119,14.9771362 C10.5786303,12.6683865 10.7307708,12.2300629 10.7471142,11.8492622 L10.7471142,11.8492622 L10.74699,7.31719 C10.74699,6.68649661 10.2353334,6.17484 9.60464,6.17484 C8.47109218,6.17484 7.55259,5.25610546 7.55259,4.12279 L7.55259,4.12279 L7.55259,2.50194 C7.55259,1.36862454 8.47109218,0.44989 9.60464,0.44989 L9.60464,0.44989 Z M20.638465,22.47057 C20.2444101,22.47057 19.96059,22.825456 19.4488101,23.9521046 L19.1624348,24.5859805 C18.5056155,25.9935364 18.0452921,26.50207 17.067865,26.50207 C16.0446742,26.50207 15.588736,25.944016 14.8801817,24.3789839 L14.7819178,24.1592866 C14.2109497,22.8685552 13.9174921,22.47057 13.501115,22.47057 C13.1302318,22.47057 12.8569234,22.7850601 12.3995618,23.761213 L12.1201556,24.3795159 C11.4112932,25.9440088 10.9550067,26.50207 9.931615,26.50207 C8.95450019,26.50207 8.49445128,25.9935582 7.83798974,24.5858989 L7.46383225,23.7611371 C7.21907604,23.2385605 7.02709711,22.9056386 6.84471231,22.7090742 L6.45277303,23.4939554 L5.71462103,24.9909825 C2.95598507,30.6378869 1.54989,34.2045229 1.54989,36.01399 C1.54989,42.5650405 5.64730458,44.3126359 16.6311446,44.334629 L16.6311446,44.334629 L17.3675922,44.3341331 C28.3226347,44.2914702 32.34604,42.5441432 32.34604,36.01399 C32.34604,34.3409524 31.1425563,31.1631368 28.7762737,26.2201873 L28.7762737,26.2201873 L27.9681119,24.5548503 C27.744008,24.0986623 27.5089453,23.6239034 27.2552032,23.1145962 L27.2552032,23.1145962 L27.1489118,22.9007197 C26.9874554,23.1327865 26.8107867,23.4725563 26.5927761,23.9521974 L26.3062294,24.5860622 C25.6490522,25.9935147 25.1884544,26.50207 24.210715,26.50207 C23.186399,26.50207 22.7295756,25.9437886 22.0199388,24.3787972 L21.8285495,23.9517742 C21.3166517,22.8253914 21.0327355,22.47057 20.638465,22.47057 Z M13.833205,36.03786 C14.570205,36.03786 15.167505,36.63516 15.167505,37.37216 C15.167505,38.10916 14.570205,38.70646 13.833205,38.70646 C13.096205,38.70646 12.498905,38.10916 12.498905,37.37216 C12.498905,36.63516 13.096205,36.03786 13.833205,36.03786 Z M20.829535,30.14758 C22.225985,30.14758 23.357885,31.27948 23.357885,32.67593 C23.357885,34.07238 22.225985,35.20428 20.829535,35.20428 C19.433085,35.20428 18.301735,34.07238 18.301735,32.67593 C18.301735,31.27948 19.433085,30.14758 20.829535,30.14758 Z M24.29129,1.54989 L9.60464,1.54989 C9.0786677,1.54989 8.65259,1.97607549 8.65259,2.50194 L8.65259,2.50194 L8.65259,4.12279 C8.65259,4.64865451 9.0786677,5.07484 9.60464,5.07484 L9.60464,5.07484 L9.75814104,5.08001421 C10.9247819,5.15892498 11.84699,6.13057533 11.84699,7.31719 L11.84699,7.31719 L11.84699,11.55384 C11.84699,12.2704422 11.3109419,13.6375869 10.1844114,15.997392 L10.1844114,15.997392 L9.84620692,16.6991788 C9.60906276,17.1870066 9.34520037,17.7217538 9.03440398,18.3452963 L9.03440398,18.3452963 L7.36969434,21.6657214 C7.79118316,21.9763737 8.12595046,22.5533056 8.55203366,23.4939941 L8.83099775,24.1115029 C9.28820732,25.0876867 9.56125058,25.40207 9.931615,25.40207 C10.3018745,25.40207 10.5749273,25.0877808 11.032029,24.1121484 L11.4062649,23.2874786 C12.0631639,21.8793573 12.5236543,21.37057 13.501115,21.37057 C14.4780905,21.37057 14.9380857,21.8791979 15.5942511,23.2868369 L15.8804904,23.9210984 L16.0519388,24.2871979 C16.4596869,25.1257797 16.7211764,25.40207 17.067865,25.40207 C17.4387402,25.40207 17.711968,25.0877073 18.1695033,24.1114292 L18.5438952,23.2866595 C19.2007145,21.8791036 19.6610379,21.37057 20.638465,21.37057 C21.6159278,21.37057 22.0764399,21.8790992 22.7333776,23.2862385 L23.0200365,23.9204548 C23.5320734,25.0471352 23.8161131,25.40207 24.210715,25.40207 C24.582101,25.40207 24.8555133,25.0877278 25.3133744,24.1113555 L25.49427,23.7135041 C25.9070507,22.7819516 26.2281254,22.1748845 26.6031595,21.8126366 L24.565912,17.745383 C24.3780582,17.3657319 24.2080045,17.0192219 24.0498208,16.6935573 L24.0498208,16.6935573 L23.5678787,15.6884059 C22.5395897,13.5116744 22.04894,12.2287791 22.04894,11.54174 L22.04894,11.54174 L22.04894,7.31719 C22.04894,6.07898339 23.0530834,5.07484 24.29129,5.07484 L24.29129,5.07484 L24.4023894,5.06843337 C24.8761766,5.01342561 25.24389,4.61093748 25.24389,4.12279 L25.24389,4.12279 L25.24389,2.50194 C25.24389,1.97624271 24.8174295,1.54989 24.29129,1.54989 L24.29129,1.54989 Z M16.948185,15.651065 C17.931585,15.651065 18.728535,16.448015 18.728535,17.431415 C18.728535,18.414815 17.931585,19.211765 16.948185,19.211765 C15.964785,19.211765 15.167285,18.414815 15.167285,17.431415 C15.167285,16.448015 15.964785,15.651065 16.948185,15.651065 Z"></path>
                </g>
            </g>
        </g>
    </g>
</svg>