<?xml version="1.0" encoding="UTF-8"?>
<svg width="654px" height="626px" viewBox="0 0 654 626" version="1.1" xmlns="http://www.w3.org/2000/svg" xmlns:xlink="http://www.w3.org/1999/xlink">
    <!-- Generator: sketchtool 61.2 (101010) - https://sketch.com -->
    <title>4FC22FDE-5AAE-4E95-A439-CD23EBF6A228</title>
    <desc>Created with sketchtool.</desc>
    <g id="Dev-Notes" stroke="none" stroke-width="1" fill="none" fill-rule="evenodd">
        <g id="Assets" transform="translate(-72.000000, -4237.000000)">
            <g id="Design-Elements---Slider" transform="translate(72.000000, 4237.000000)">
                <path d="M275.204,625.7 C399.666034,625.7 711.362026,580.625229 643.9689,203.472638 C624.657086,95.3978061 545.263898,47 399.576245,47 C210.59752,47 47,223.031024 47,347.6 C47,472.168976 150.741966,625.7 275.204,625.7 Z" id="Oval" fill="#004885" transform="translate(350.199090, 336.350000) scale(1, -1) translate(-350.199090, -336.350000) "></path>
                <circle id="Oval" fill="#A6CF9F" cx="109.8" cy="498.8" r="109.8"></circle>
                <g id="Little-Lines" transform="translate(16.000000, 0.000000)" fill="#F4FAFA" fill-rule="nonzero">
                    <path d="M47.1492548,117.18591 L47.2988737,117.327126 L65.4428737,135.471126 C66.8097088,136.837961 66.8097088,139.054039 65.4428737,140.420874 C64.1248542,141.738893 62.0171693,141.785965 60.6427452,140.56209 L60.4931263,140.420874 L42.3491263,122.276874 C40.9822912,120.910039 40.9822912,118.693961 42.3491263,117.327126 C43.6671458,116.009107 45.7748307,115.962035 47.1492548,117.18591 Z M109.519255,117.18591 L109.668874,117.327126 L127.812874,135.471126 C129.179709,136.837961 129.179709,139.054039 127.812874,140.420874 C126.494854,141.738893 124.387169,141.785965 123.012745,140.56209 L122.863126,140.420874 L104.719126,122.276874 C103.352291,120.910039 103.352291,118.693961 104.719126,117.327126 C106.037146,116.009107 108.144831,115.962035 109.519255,117.18591 Z M146.941255,117.18591 L147.090874,117.327126 L165.234874,135.471126 C166.601709,136.837961 166.601709,139.054039 165.234874,140.420874 C163.916854,141.738893 161.809169,141.785965 160.434745,140.56209 L160.285126,140.420874 L142.141126,122.276874 C140.774291,120.910039 140.774291,118.693961 142.141126,117.327126 C143.459146,116.009107 145.566831,115.962035 146.941255,117.18591 Z M72.0972548,104.71191 L72.2468737,104.853126 L90.3908737,122.997126 C91.7577088,124.363961 91.7577088,126.580039 90.3908737,127.946874 C89.0728542,129.264893 86.9651693,129.311965 85.5907452,128.08809 L85.4411263,127.946874 L67.2971263,109.802874 C65.9302912,108.436039 65.9302912,106.219961 67.2971263,104.853126 C68.6151458,103.535107 70.7228307,103.488035 72.0972548,104.71191 Z M84.5712548,78.6299099 L84.7208737,78.7711263 L102.864874,96.9151263 C104.231709,98.2819613 104.231709,100.498039 102.864874,101.864874 C101.546854,103.182893 99.4391693,103.229965 98.0647452,102.00609 L97.9151263,101.864874 L79.7711263,83.7208737 C78.4042912,82.3540387 78.4042912,80.1379613 79.7711263,78.7711263 C81.0891458,77.4531068 83.1968307,77.4060347 84.5712548,78.6299099 Z M118.591255,78.6299099 L118.740874,78.7711263 L136.884874,96.9151263 C138.251709,98.2819613 138.251709,100.498039 136.884874,101.864874 C135.566854,103.182893 133.459169,103.229965 132.084745,102.00609 L131.935126,101.864874 L113.791126,83.7208737 C112.424291,82.3540387 112.424291,80.1379613 113.791126,78.7711263 C115.109146,77.4531068 117.216831,77.4060347 118.591255,78.6299099 Z M153.745255,78.6299099 L153.894874,78.7711263 L172.038874,96.9151263 C173.405709,98.2819613 173.405709,100.498039 172.038874,101.864874 C170.720854,103.182893 168.613169,103.229965 167.238745,102.00609 L167.089126,101.864874 L148.945126,83.7208737 C147.578291,82.3540387 147.578291,80.1379613 148.945126,78.7711263 C150.263146,77.4531068 152.370831,77.4060347 153.745255,78.6299099 Z M47.1492548,69.5579099 L47.2988737,69.6991263 L65.4428737,87.8431263 C66.8097088,89.2099613 66.8097088,91.4260387 65.4428737,92.7928737 C64.1248542,94.1108932 62.0171693,94.1579653 60.6427452,92.9340901 L60.4931263,92.7928737 L42.3491263,74.6488737 C40.9822912,73.2820387 40.9822912,71.0659613 42.3491263,69.6991263 C43.6671458,68.3811068 45.7748307,68.3340347 47.1492548,69.5579099 Z M6.32525485,69.5579099 L6.47487373,69.6991263 L24.6188737,87.8431263 C25.9857088,89.2099613 25.9857088,91.4260387 24.6188737,92.7928737 C23.3008542,94.1108932 21.1931693,94.1579653 19.8187452,92.9340901 L19.6691263,92.7928737 L1.52512627,74.6488737 C0.158291245,73.2820387 0.158291245,71.0659613 1.52512627,69.6991263 C2.84314575,68.3811068 4.95083069,68.3340347 6.32525485,69.5579099 Z M133.333255,42.3419099 L133.482874,42.4831263 L151.626874,60.6271263 C152.993709,61.9939613 152.993709,64.2100387 151.626874,65.5768737 C150.308854,66.8948932 148.201169,66.9419653 146.826745,65.7180901 L146.677126,65.5768737 L128.533126,47.4328737 C127.166291,46.0660387 127.166291,43.8499613 128.533126,42.4831263 C129.851146,41.1651068 131.958831,41.1180347 133.333255,42.3419099 Z M93.6432548,42.3419099 L93.7928737,42.4831263 L111.936874,60.6271263 C113.303709,61.9939613 113.303709,64.2100387 111.936874,65.5768737 C110.618854,66.8948932 108.511169,66.9419653 107.136745,65.7180901 L106.987126,65.5768737 L88.8431263,47.4328737 C87.4762912,46.0660387 87.4762912,43.8499613 88.8431263,42.4831263 C90.1611458,41.1651068 92.2688307,41.1180347 93.6432548,42.3419099 Z M59.6232548,37.8059099 L59.7728737,37.9471263 L77.9168737,56.0911263 C79.2837088,57.4579613 79.2837088,59.6740387 77.9168737,61.0408737 C76.5988542,62.3588932 74.4911693,62.4059653 73.1167452,61.1820901 L72.9671263,61.0408737 L54.8231263,42.8968737 C53.4562912,41.5300387 53.4562912,39.3139613 54.8231263,37.9471263 C56.1411458,36.6291068 58.2488307,36.5820347 59.6232548,37.8059099 Z M18.7992548,28.7339099 L18.9488737,28.8751263 L37.0928737,47.0191263 C38.4597088,48.3859613 38.4597088,50.6020387 37.0928737,51.9688737 C35.7748542,53.2868932 33.6671693,53.3339653 32.2927452,52.1100901 L32.1431263,51.9688737 L13.9991263,33.8248737 C12.6322912,32.4580387 12.6322912,30.2419613 13.9991263,28.8751263 C15.3171458,27.5571068 17.4248307,27.5100347 18.7992548,28.7339099 Z M90.2412548,9.45590989 L90.3908737,9.59712627 L108.534874,27.7411263 C109.901709,29.1079613 109.901709,31.3240387 108.534874,32.6908737 C107.216854,34.0088932 105.109169,34.0559653 103.734745,32.8320901 L103.585126,32.6908737 L85.4411263,14.5468737 C84.0742912,13.1800387 84.0742912,10.9639613 85.4411263,9.59712627 C86.7591458,8.27910678 88.8668307,8.23203466 90.2412548,9.45590989 Z M161.683255,9.45590989 L161.832874,9.59712627 L179.976874,27.7411263 C181.343709,29.1079613 181.343709,31.3240387 179.976874,32.6908737 C178.658854,34.0088932 176.551169,34.0559653 175.176745,32.8320901 L175.027126,32.6908737 L156.883126,14.5468737 C155.516291,13.1800387 155.516291,10.9639613 156.883126,9.59712627 C158.201146,8.27910678 160.308831,8.23203466 161.683255,9.45590989 Z M123.127255,4.91990989 L123.276874,5.06112627 L141.420874,23.2051263 C142.787709,24.5719613 142.787709,26.7880387 141.420874,28.1548737 C140.102854,29.4728932 137.995169,29.5199653 136.620745,28.2960901 L136.471126,28.1548737 L118.327126,10.0108737 C116.960291,8.64403871 116.960291,6.42796129 118.327126,5.06112627 C119.645146,3.74310678 121.752831,3.69603466 123.127255,4.91990989 Z M50.0887725,0.862726565 L50.2306477,0.995352275 L68.3746477,19.1393523 C69.4817841,20.2464886 69.4817841,22.0415114 68.3746477,23.1486477 C67.313642,24.2096534 65.6208796,24.253862 64.5072275,23.2812734 L64.3653523,23.1486477 L46.2213523,5.00464772 C45.1142159,3.89751136 45.1142159,2.10248864 46.2213523,0.995352275 C47.282358,-0.0656534098 48.9751204,-0.10986198 50.0887725,0.862726565 Z" id="Combined-Shape"></path>
                </g>
            </g>
        </g>
    </g>
</svg>