<?xml version="1.0" encoding="UTF-8"?>
<svg width="24px" height="43px" viewBox="0 0 24 43" version="1.1" xmlns="http://www.w3.org/2000/svg" xmlns:xlink="http://www.w3.org/1999/xlink">
    <!-- Generator: sketchtool 61.2 (101010) - https://sketch.com -->
    <title>C55C01B5-36AC-454A-A84B-4800C77352C7</title>
    <desc>Created with sketchtool.</desc>
    <g id="Dev-Notes" stroke="none" stroke-width="1" fill="none" fill-rule="evenodd">
        <g id="Assets" transform="translate(-483.000000, -69.000000)" fill="#42B5E5" fill-rule="nonzero">
            <g id="Icons/Tested" transform="translate(483.000000, 69.000000)">
                <g id="Combined-Shape">
                    <path d="M20.96116,0.40012 C22.2117308,0.40012 23.22616,1.41454915 23.22616,2.66512 L23.22616,2.66512 L23.22616,4.30372 C23.22616,5.55476462 22.2118571,6.56932 20.96116,6.56932 L20.96116,6.56932 L20,6.569 L20.00056,34.19512 C20.00056,38.6334488 16.4695341,42.2466659 12.0638544,42.3789667 L12.0638544,42.3789667 L11.81356,42.38272 C7.29148946,42.38272 3.62536,38.7171912 3.62536,34.19512 L3.62536,34.19512 L3.625,6.569 L2.66596,6.56932 C1.46687563,6.56932 0.484751927,5.6376218 0.404990029,4.45882161 L0.404990029,4.45882161 L0.39976,4.30372 L0.39976,2.66512 C0.39976,1.41447042 1.41486778,0.40012 2.66596,0.40012 L2.66596,0.40012 Z M12.1411,27.98872 C11.5809662,27.98872 11.2988899,28.1210944 10.7789827,28.5900723 L10.4590833,28.8843518 C9.73301935,29.536516 9.21896342,29.78872 8.3005,29.78872 C7.38205958,29.78872 6.8679622,29.5363472 6.14225615,28.8840186 L5.97074879,28.7263143 C5.48913766,28.2745215 5.21299121,28.0791012 4.82648847,28.0147278 L4.82536,34.19512 C4.82536,38.0544055 7.95418715,41.18272 11.81356,41.18272 C15.6722892,41.18272 18.80056,38.0544492 18.80056,34.19512 L18.80056,34.19512 L18.8009054,28.3106699 C18.6975175,28.3867002 18.5876355,28.4789069 18.4643958,28.5900055 L18.1442995,28.8842821 C17.4177158,29.5365011 16.9032657,29.78872 15.9841,29.78872 C15.0649343,29.78872 14.5504842,29.5365011 13.8239005,28.8842821 L13.6521809,28.7266022 C13.032647,28.1462426 12.7523764,27.98872 12.1411,27.98872 Z M20.96116,1.60012 L2.66596,1.60012 C2.07740907,1.60012 1.59976,2.0774127 1.59976,2.66512 L1.59976,2.66512 L1.59976,4.30372 C1.59976,4.89196793 2.07734961,5.36932 2.66596,5.36932 L2.66596,5.36932 L4.82536,5.36932 L4.82476,9.50412 L10.15348,9.505 L10.15348,10.705 L4.82476,10.70412 L4.82476,14.80412 L10.15348,14.8051 L10.15348,16.0051 L4.82476,16.00412 L4.82476,20.10412 L10.15348,20.1049 L10.15348,21.3049 L4.82476,21.30412 L4.82586856,26.8039183 C5.52848879,26.8670778 5.99586639,27.1321459 6.61985819,27.6930568 L6.79130121,27.8507036 C7.41011228,28.4312018 7.69003968,28.58872 8.3005,28.58872 C8.86028747,28.58872 9.14221277,28.4564032 9.6619803,27.9875446 L9.81001945,27.8511766 C10.6313613,27.0812889 11.1516301,26.78872 12.1411,26.78872 C13.0599356,26.78872 13.5742144,27.0408768 14.3006566,27.6929758 L14.6207587,27.9872577 C15.141066,28.4562996 15.4234169,28.58872 15.9841,28.58872 C16.5447831,28.58872 16.827134,28.4562996 17.3474413,27.9872577 L17.6675434,27.6929758 C18.0753271,27.3269242 18.4162568,27.086897 18.7994198,26.9467535 L18.80056,5.36932 L20.96116,5.36932 C21.5490485,5.36932 22.02616,4.89208976 22.02616,4.30372 L22.02616,4.30372 L22.02616,2.66512 C22.02616,2.07729085 21.5489892,1.60012 20.96116,1.60012 L20.96116,1.60012 Z"></path>
                </g>
            </g>
        </g>
    </g>
</svg>