<?xml version="1.0" encoding="UTF-8"?>
<svg width="45px" height="35px" viewBox="0 0 45 35" version="1.1" xmlns="http://www.w3.org/2000/svg" xmlns:xlink="http://www.w3.org/1999/xlink">
    <!-- Generator: sketchtool 61.2 (101010) - https://sketch.com -->
    <title>C6403E0D-8D27-4F1E-8256-BD1E1147EFEF</title>
    <desc>Created with sketchtool.</desc>
    <g id="Dev-Notes" stroke="none" stroke-width="1" fill="none" fill-rule="evenodd">
        <g id="Assets" transform="translate(-412.000000, -68.000000)" fill="#42B5E5" fill-rule="nonzero">
            <g id="Icons/Trust" transform="translate(412.000000, 68.000000)">
                <g id="Combined-Shape">
                    <path d="M13.3320473,0.400179552 L25.99024,7.70917955 L31.45804,4.55416377 L44.38984,12.0201658 L44.38984,26.9521797 L31.45804,34.4188108 L18.79624,27.1091796 L13.3320473,30.2648204 L0.40024,22.7988142 L0.40024,7.86618575 L13.3320473,0.400179552 Z M31.458,5.939 L26.26224,8.93817955 L26.26324,22.7988058 L19.99724,26.4151796 L31.458,33.033 L43.189,26.259 L43.189,12.713 L31.458,5.939 Z M13.332,1.785 L1.6,8.559 L1.6,22.105 L13.332,28.879 L18.52524,25.8791796 L18.52624,12.0201658 L24.79124,8.40117955 L13.332,1.785 Z M25.06224,9.63017955 L19.726,12.713 L19.72524,25.1861796 L25.063,22.105 L25.06224,9.63017955 Z"></path>
                </g>
            </g>
        </g>
    </g>
</svg>