<?xml version="1.0" encoding="UTF-8"?>
<svg width="48px" height="34px" viewBox="0 0 48 34" version="1.1" xmlns="http://www.w3.org/2000/svg" xmlns:xlink="http://www.w3.org/1999/xlink">
    <!-- Generator: sketchtool 61.2 (101010) - https://sketch.com -->
    <title>2AD3E347-2442-4FAC-88EF-CFB45758B0EA-black</title>
    <desc>Created with sketchtool.</desc>
    <g id="Dev-Notes" stroke="none" stroke-width="1" fill="none" fill-rule="evenodd">
        <g id="Assets" transform="translate(-644.000000, -889.000000)" fill="#004885">
            <g id="Youtube/black" transform="translate(644.000000, 889.000000)">
                <path d="M19.044,23.269916 L19.0425,9.68774159 L32.0115,16.5022437 L19.044,23.269916 Z M47.52,7.3341627 C47.52,7.3341627 47.0505,4.003199 45.612,2.53636646 C43.7865,0.610299018 41.7405,0.601235171 40.803,0.489447727 C34.086,0 24.0105,0 24.0105,0 L23.9895,0 C23.9895,0 13.914,0 7.197,0.489447727 C6.258,0.601235171 4.2135,0.610299018 2.3865,2.53636646 C0.948,4.003199 0.48,7.3341627 0.48,7.3341627 C0.48,7.3341627 0,11.2467232 0,15.1577731 L0,18.8256098 C0,22.7381703 0.48,26.6492202 0.48,26.6492202 C0.48,26.6492202 0.948,29.9801839 2.3865,31.4470165 C4.2135,33.3730839 6.612,33.3126583 7.68,33.5135736 C11.52,33.8851913 24,34 24,34 C24,34 34.086,33.9848936 40.803,33.4954459 C41.7405,33.3821478 43.7865,33.3730839 45.612,31.4470165 C47.0505,29.9801839 47.52,26.6492202 47.52,26.6492202 C47.52,26.6492202 48,22.7381703 48,18.8256098 L48,15.1577731 C48,11.2467232 47.52,7.3341627 47.52,7.3341627 L47.52,7.3341627 Z"></path>
            </g>
        </g>
    </g>
</svg>